<?xml version="1.0" encoding="UTF-8"?>
<svg xmlns="http://www.w3.org/2000/svg" xmlns:xlink="http://www.w3.org/1999/xlink" width="32pt" height="32pt" viewBox="0 0 32 32" version="1.1">
<g id="surface98020">
<path style=" stroke:none;fill-rule:nonzero;fill:rgb(100%,100%,100%);fill-opacity:1;" d="M 15.144531 5.015625 C 13.730469 4.9375 12.140625 5.15625 10.585938 5.695312 C 8.117188 6.550781 5.445312 7.898438 3.523438 9.65625 C 1.242188 11.746094 0.878906 13.566406 1.027344 14.328125 C 1.5625 17.023438 5.367188 18.785156 6.890625 20.089844 C 6.816406 20.128906 6.746094 20.164062 6.679688 20.203125 C 5.914062 20.570312 3.082031 22.03125 2.355469 23.597656 C 1.535156 25.375 2.492188 26.648438 3.117188 26.824219 C 5.078125 27.355469 7.015625 26.425781 8.09375 24.855469 C 9.171875 23.28125 9.042969 21.230469 8.546875 20.296875 C 8.539062 20.28125 8.53125 20.273438 8.527344 20.257812 C 8.722656 20.144531 8.921875 20.027344 9.125 19.914062 C 9.515625 19.6875 9.894531 19.480469 10.226562 19.304688 C 10.039062 19.796875 9.902344 20.394531 9.832031 21.257812 C 9.746094 22.265625 10.171875 23.566406 10.726562 24.082031 C 10.96875 24.308594 11.265625 24.3125 11.449219 24.3125 C 12.09375 24.3125 12.386719 23.789062 12.707031 23.167969 C 13.105469 22.40625 13.457031 21.523438 13.457031 21.523438 C 13.457031 21.523438 13.019531 23.914062 14.222656 23.914062 C 14.664062 23.914062 15.105469 23.359375 15.300781 23.074219 L 15.300781 23.078125 C 15.300781 23.078125 15.308594 23.058594 15.332031 23.023438 C 15.378906 22.953125 15.402344 22.914062 15.402344 22.914062 L 15.402344 22.902344 C 15.582031 22.601562 15.96875 21.921875 16.558594 20.792969 C 17.316406 19.335938 18.042969 17.515625 18.042969 17.515625 C 18.109375 17.914062 18.207031 18.308594 18.332031 18.699219 C 18.464844 19.132812 18.742188 19.609375 18.960938 20.074219 C 18.78125 20.308594 18.675781 20.449219 18.675781 20.449219 C 18.675781 20.453125 18.675781 20.453125 18.679688 20.457031 C 18.539062 20.640625 18.378906 20.835938 18.214844 21.03125 C 17.613281 21.726562 16.902344 22.523438 16.808594 22.753906 C 16.695312 23.023438 16.722656 23.226562 16.941406 23.382812 C 17.097656 23.5 17.382812 23.519531 17.675781 23.496094 C 18.214844 23.460938 18.59375 23.328125 18.777344 23.25 C 19.113281 23.128906 19.433594 22.96875 19.722656 22.765625 C 20.308594 22.339844 20.664062 21.738281 20.632812 20.941406 C 20.613281 20.5 20.46875 20.058594 20.289062 19.648438 C 20.339844 19.574219 20.398438 19.496094 20.449219 19.417969 C 21.378906 18.09375 22.09375 16.640625 22.09375 16.640625 C 22.164062 17.039062 22.261719 17.433594 22.386719 17.824219 C 22.496094 18.191406 22.71875 18.601562 22.917969 19 C 22.050781 19.691406 21.507812 20.496094 21.320312 21.023438 C 20.972656 21.996094 21.246094 22.4375 21.757812 22.539062 C 21.988281 22.582031 22.316406 22.480469 22.558594 22.378906 C 22.921875 22.261719 23.261719 22.089844 23.570312 21.871094 C 24.15625 21.445312 24.722656 20.855469 24.683594 20.054688 C 24.671875 19.691406 24.570312 19.332031 24.433594 18.984375 C 25.167969 18.679688 26.125 18.515625 27.34375 18.652344 C 29.953125 18.949219 30.464844 20.546875 30.367188 21.210938 C 30.269531 21.875 29.71875 22.246094 29.535156 22.355469 C 29.355469 22.464844 29.296875 22.507812 29.3125 22.589844 C 29.335938 22.707031 29.417969 22.703125 29.574219 22.675781 C 29.789062 22.640625 30.941406 22.136719 30.996094 20.902344 C 31.070312 19.34375 29.539062 17.632812 26.828125 17.644531 L 26.824219 17.644531 C 25.878906 17.644531 24.953125 17.855469 24.109375 18.265625 C 23.832031 17.71875 23.542969 17.242188 23.5 16.886719 C 23.441406 16.46875 23.382812 16.21875 23.449219 15.726562 C 23.511719 15.230469 23.808594 14.53125 23.804688 14.480469 C 23.796875 14.429688 23.738281 14.175781 23.132812 14.171875 C 22.527344 14.167969 22.007812 14.285156 21.949219 14.441406 C 21.839844 14.726562 21.757812 15.019531 21.699219 15.316406 C 21.589844 15.851562 20.488281 17.769531 19.867188 18.769531 C 19.660156 18.378906 19.488281 18.035156 19.453125 17.761719 C 19.394531 17.34375 19.332031 17.09375 19.398438 16.601562 C 19.464844 16.105469 19.761719 15.40625 19.753906 15.355469 C 19.75 15.304688 19.691406 15.050781 19.085938 15.046875 C 18.480469 15.042969 17.960938 15.160156 17.898438 15.316406 C 17.835938 15.472656 17.769531 15.839844 17.652344 16.191406 C 17.527344 16.542969 16.0625 19.734375 15.675781 20.566406 C 15.480469 20.988281 15.3125 21.324219 15.1875 21.554688 C 15.171875 21.589844 15.15625 21.613281 15.148438 21.632812 C 15.164062 21.609375 15.171875 21.585938 15.171875 21.597656 C 15.070312 21.792969 15.007812 21.902344 15.007812 21.902344 L 15.007812 21.90625 C 14.929688 22.054688 14.839844 22.1875 14.796875 22.1875 C 14.769531 22.1875 14.707031 21.800781 14.808594 21.277344 C 15.03125 20.167969 15.550781 18.441406 15.546875 18.382812 C 15.542969 18.351562 15.644531 18.050781 15.203125 17.894531 C 14.777344 17.742188 14.625 17.996094 14.585938 17.996094 C 14.546875 17.996094 14.519531 18.085938 14.519531 18.085938 C 14.519531 18.085938 14.992188 16.144531 13.609375 16.144531 C 12.746094 16.144531 11.546875 17.066406 10.957031 17.90625 C 10.585938 18.101562 9.785156 18.53125 8.941406 18.984375 C 8.617188 19.160156 8.285156 19.335938 7.972656 19.507812 C 7.949219 19.484375 7.929688 19.460938 7.90625 19.4375 C 6.226562 17.6875 3.128906 16.449219 3.261719 14.097656 C 3.308594 13.242188 3.613281 10.992188 9.21875 8.261719 C 13.8125 6.023438 17.484375 6.636719 18.117188 8.003906 C 19.027344 9.949219 16.152344 13.574219 11.382812 14.097656 C 9.566406 14.292969 8.726562 13.527344 8.488281 13.269531 C 8.242188 13 8.203125 12.984375 8.105469 13.035156 C 7.953125 13.117188 8.050781 13.355469 8.105469 13.5 C 8.25 13.859375 8.875 14.425781 9.871094 14.75 C 10.75 15.027344 12.765625 15.261719 15.339844 14.289062 C 18.238281 13.195312 20.449219 10.234375 19.789062 7.691406 C 19.367188 6.074219 17.5 5.136719 15.144531 5.015625 Z M 13.605469 17.289062 C 13.679688 17.292969 13.734375 17.320312 13.765625 17.375 C 13.929688 17.644531 13.195312 19.640625 13.007812 20.089844 C 12.707031 20.808594 12.074219 22.640625 11.6875 22.546875 C 11.363281 22.464844 11.160156 21.066406 11.625 19.6875 C 11.855469 18.996094 12.355469 18.171875 12.652344 17.851562 C 13.003906 17.464844 13.386719 17.273438 13.605469 17.289062 Z M 23.347656 19.550781 C 23.402344 19.710938 23.429688 19.878906 23.433594 20.046875 C 23.429688 21.078125 22.675781 21.464844 22.222656 21.625 C 22.128906 21.558594 22.140625 21.34375 22.453125 20.675781 C 22.578125 20.414062 22.859375 19.972656 23.347656 19.550781 Z M 7.605469 20.6875 C 7.992188 22.082031 7.617188 23.308594 6.707031 24.277344 C 5.847656 25.199219 4.636719 25.546875 4.117188 25.253906 C 3.558594 24.9375 3.78125 23.578125 4.84375 22.597656 C 5.492188 22 6.324219 21.453125 6.878906 21.113281 C 7.007812 21.039062 7.1875 20.929688 7.410156 20.796875 C 7.449219 20.773438 7.46875 20.765625 7.46875 20.765625 C 7.511719 20.738281 7.554688 20.714844 7.601562 20.6875 Z M 19.382812 20.847656 C 19.382812 20.871094 19.386719 20.894531 19.386719 20.921875 C 19.378906 21.742188 18.574219 22.296875 18.207031 22.515625 L 18.210938 22.515625 L 18.210938 22.519531 C 18.082031 22.582031 17.964844 22.621094 17.910156 22.589844 C 17.867188 22.566406 17.964844 22.480469 17.964844 22.480469 C 17.964844 22.480469 18.613281 21.796875 18.871094 21.484375 C 19.019531 21.300781 19.195312 21.085938 19.382812 20.847656 Z M 19.382812 20.847656 "/>
</g>
</svg>
